    <svg height="64" width="64">
        <g transform="translate(5 12) rotate(-16 11 11)">
                            <circle cx="24" cy="0" r="7" stroke="gray" stroke-width="1" fill="green" transform="rotate(0 24 24)" />
                            <circle cx="24" cy="0" r="7" stroke="gray" stroke-width="1" fill="green" transform="rotate(36 24 24)" />
                            <circle cx="24" cy="0" r="7" stroke="gray" stroke-width="1" fill="green" transform="rotate(72 24 24)" />
                            <circle cx="24" cy="0" r="7" stroke="gray" stroke-width="1" fill="green" transform="rotate(108 24 24)" />
                            <circle cx="24" cy="0" r="7" stroke="gray" stroke-width="1" fill="green" transform="rotate(144 24 24)" />
                            <circle cx="24" cy="0" r="7" stroke="gray" stroke-width="1" fill="green" transform="rotate(180 24 24)" />
                            <circle cx="24" cy="0" r="7" stroke="gray" stroke-width="1" fill="green" transform="rotate(216 24 24)" />
                            <circle cx="24" cy="0" r="7" stroke="gray" stroke-width="1" fill="green" transform="rotate(252 24 24)" />
                            <circle cx="24" cy="0" r="7" stroke="gray" stroke-width="1" fill="green" transform="rotate(288 24 24)" />
                            <circle cx="24" cy="0" r="7" stroke="gray" stroke-width="1" fill="white" transform="rotate(324 24 24)" />
                            <circle cx="24" cy="0" r="7" stroke="gray" stroke-width="1" fill="white" transform="rotate(360 24 24)" />
                    </g>
        <!-- <rect width="100%" height="100%" stroke="black" fill="none"> -->
    </svg>
    